<?xml version="1.0" encoding="UTF-8"?>
<svg version="1.1" xmlns="http://www.w3.org/2000/svg" width="512" height="512">
<path d="M0 0 C0.99646423 -0.00538554 1.99292847 -0.01077108 3.01958859 -0.01631981 C6.33261505 -0.0305382 9.6452385 -0.0235107 12.95828247 -0.01637268 C15.34420084 -0.02207945 17.73011648 -0.02904489 20.11602783 -0.03717041 C25.90865747 -0.05322563 31.70116241 -0.05520922 37.49380957 -0.04995751 C42.20553106 -0.04590471 46.9172206 -0.04737249 51.62894058 -0.05270576 C52.30130915 -0.05345419 52.97367772 -0.05420261 53.66642109 -0.05497371 C55.03264498 -0.0565053 56.39886887 -0.05804365 57.76509275 -0.05958868 C70.55769937 -0.07329508 83.35024473 -0.06788924 96.14284994 -0.05640347 C107.8256482 -0.04647401 119.50828801 -0.05941003 131.19106184 -0.08333766 C143.21026472 -0.10776733 155.22939392 -0.11732699 167.24862111 -0.11068493 C173.98716346 -0.10720116 180.72558404 -0.10936881 187.46410751 -0.12693596 C193.80241294 -0.14243499 200.14041654 -0.13841631 206.47871017 -0.11963081 C208.79898522 -0.11595312 211.11928278 -0.11902933 213.43953705 -0.1295166 C232.09695042 -0.20737896 245.15312217 1.5145236 259.36502075 14.70018005 C270.24103879 26.19182176 272.06816672 38.8869306 272.00270081 54.10105896 C272.00687872 55.68648975 272.01235874 57.27191756 272.01902062 58.85733986 C272.03343363 63.19370468 272.02924353 67.52987877 272.0218538 71.86625385 C272.01711423 76.55072104 272.02963888 81.23514743 272.03987122 85.91960144 C272.05704833 95.08844977 272.05790158 104.25722953 272.05265831 113.42608976 C272.04861381 120.87905287 272.05006349 128.33199574 272.05540657 135.78495789 C272.05615499 136.84645447 272.05690341 137.90795106 272.05767452 139.00161421 C272.05920602 141.15814957 272.06074436 143.31468491 272.06228948 145.47122025 C272.07601027 165.68421373 272.0705795 185.89716848 272.05910427 206.11016107 C272.04916952 224.59707382 272.06211752 243.08388653 272.08603846 261.57078385 C272.11042671 280.56214755 272.12003818 299.55346463 272.11338574 318.54484367 C272.10989328 329.20352463 272.11212756 339.86212862 272.12963676 350.52079773 C272.14435516 359.5929091 272.14499874 368.66488929 272.12756585 377.73699808 C272.11905107 382.36409746 272.1169181 386.99096244 272.13221741 391.61804962 C272.14605983 395.85702949 272.14130718 400.09557403 272.12197817 404.33452868 C272.11821653 405.86467894 272.12114491 407.39486403 272.13158982 408.92498326 C272.20412193 420.36774921 270.90869569 429.92170226 262.81033325 438.5634613 C255.70656512 444.46641454 247.12964645 447.76814127 237.89904785 447.59947205 C229.07431915 446.78117752 222.11764098 443.34171562 214.95095825 438.35643005 C213.63643173 437.46969604 213.63643173 437.46969604 212.29534912 436.56504822 C209.51704717 434.68665001 206.75333743 432.78803566 203.99002075 430.88768005 C202.16156758 429.64405943 200.33214632 428.40186092 198.5017395 427.16111755 C195.78661828 425.32039846 193.07213842 423.4788278 190.36117554 421.63198853 C184.34124076 417.53495664 178.26973473 413.53169431 172.14379883 409.59539795 C163.39046093 403.96938697 154.71315697 398.22793647 146.02810669 392.49729919 C143.09142936 390.55961393 140.15406462 388.62297428 137.21658325 386.68650818 C135.31810639 385.43461474 133.41966751 384.1826637 131.52127075 382.9306488 C130.22727356 382.07735237 130.22727356 382.07735237 128.90713501 381.20681763 C123.46585824 377.61620304 118.03600093 374.00886419 112.61502075 370.38768005 C111.93536255 370.82201355 111.25570435 371.25634705 110.55545044 371.70384216 C106.33354579 374.40060699 102.10708386 377.08762697 97.84939575 379.7275238 C90.87362844 384.05369524 83.9571345 388.44502627 77.14382935 393.02391052 C67.31160524 399.62246939 57.37962306 406.0712684 47.47055054 412.55354309 C42.92760574 415.52625154 38.38942929 418.50614373 33.853302 421.48924255 C27.81547178 425.45947976 21.77016401 429.41806177 15.71658325 433.36424255 C13.78501446 434.62438441 11.85503635 435.88697213 9.92752075 437.15330505 C7.72628306 438.59697393 5.51669034 440.02645795 3.30252075 441.45018005 C2.42503174 442.03134583 2.42503174 442.03134583 1.52981567 442.62425232 C-6.22466021 447.54309354 -15.03153209 448.53322583 -23.96310425 446.9228363 C-33.51645683 444.44658387 -40.35206964 438.8352481 -45.38497925 430.38768005 C-47.74688246 425.52237577 -48.76042512 422.03922165 -48.76529598 416.54717731 C-48.7699559 415.89267169 -48.77461582 415.23816607 -48.77941695 414.56382695 C-48.7913308 412.37919721 -48.78198598 410.19519358 -48.7726593 408.01055908 C-48.77683384 406.42501803 -48.78231202 404.83947997 -48.78897911 403.25394744 C-48.80343726 398.9032647 -48.79918781 394.55277134 -48.7918123 390.20207822 C-48.78708371 385.50729491 -48.79958791 380.81255274 -48.80982971 376.11778259 C-48.82703051 366.92178324 -48.82785487 357.72585219 -48.82261681 348.52984092 C-48.8185754 341.05346323 -48.82001834 333.57710572 -48.82536507 326.10072899 C-48.82611349 325.03662802 -48.82686191 323.97252704 -48.82763301 322.87618059 C-48.8291645 320.71441509 -48.83070285 318.55264961 -48.83224798 316.39088412 C-48.84597826 296.11441658 -48.84053216 275.83798762 -48.82906277 255.56152096 C-48.81913515 237.0208032 -48.83206198 218.48018531 -48.85599696 199.93948296 C-48.88039516 180.89622404 -48.88999372 161.85301162 -48.88334423 142.80973738 C-48.87985294 132.1207668 -48.88207793 121.43187296 -48.89959526 110.7429142 C-48.91432644 101.64114322 -48.91494092 92.53950302 -48.89752435 83.43773458 C-48.88901857 78.79623167 -48.88685437 74.15496227 -48.9021759 69.5134716 C-48.91604609 65.25884804 -48.91123003 61.00465752 -48.89193667 56.75005885 C-48.8881834 55.21641861 -48.89107913 53.68274348 -48.90154832 52.14913438 C-49.00303607 36.13506959 -45.03337684 24.45166637 -34.07247925 12.63768005 C-24.40600648 3.48905404 -13.08814388 -0.08624304 0 0 Z M-12.32247925 38.13768005 C-15.72813284 43.5041645 -16.63539245 48.66084427 -16.63107491 54.94935513 C-16.635057 56.23473185 -16.6390391 57.52010857 -16.64314187 58.84443611 C-16.63743682 60.25838254 -16.63154565 61.67232823 -16.62548828 63.08627319 C-16.6263609 64.59786745 -16.62811292 66.10946141 -16.63066661 67.62105376 C-16.63513305 71.76685164 -16.62714613 75.91254596 -16.61711049 80.05833066 C-16.60846817 84.53200531 -16.61139671 89.0056742 -16.61291504 93.47935486 C-16.61396339 101.22768473 -16.60769195 108.9759809 -16.59643936 116.72430229 C-16.58018064 127.92705003 -16.57497597 139.12978149 -16.57246338 150.33253974 C-16.56808686 168.50856255 -16.55477893 186.68456739 -16.53585815 204.86058044 C-16.51749824 222.51617849 -16.50334228 240.17177165 -16.49484253 257.82737732 C-16.49431708 258.91579164 -16.49379164 260.00420596 -16.49325027 261.12560254 C-16.49064018 266.58589407 -16.48811277 272.04618564 -16.48562646 277.50647724 C-16.46489531 322.80022395 -16.42967095 368.09395107 -16.38497925 413.38768005 C-11.92575125 411.69530759 -8.16879474 409.4049074 -4.240448 406.73143005 C-3.55300003 406.2696637 -2.86555206 405.80789734 -2.15727234 405.33213806 C0.04064647 403.85503283 2.23437202 402.37185654 4.42752075 400.88768005 C7.28595195 398.95724367 10.14649098 397.02999345 13.009552 395.10643005 C13.71831985 394.63020706 14.42708771 394.15398407 15.15733337 393.66333008 C20.77201664 389.90983565 26.46528484 386.29506501 32.21250916 382.74827576 C36.29849921 380.22651394 40.31413945 377.62410894 44.30252075 374.95018005 C44.95059692 374.51584656 45.5986731 374.08151306 46.26638794 373.63401794 C46.83003052 373.254953 47.3936731 372.87588806 47.97439575 372.4853363 C59.12266219 365.02153603 70.36870102 357.70257425 81.61502075 350.38768005 C82.97578735 349.50209412 82.97578735 349.50209412 84.36404419 348.59861755 C86.54571494 347.18501567 88.73406422 345.78289959 90.92752075 344.38768005 C91.5113855 344.00934021 92.09525024 343.63100037 92.69680786 343.24119568 C98.85176294 339.37314432 104.72118122 336.95776365 112.05252075 337.01268005 C113.08248169 337.00494568 114.11244263 336.9972113 115.1736145 336.98924255 C123.59553555 337.96431173 130.01913605 341.56977624 136.9079895 346.3134613 C137.76729065 346.89238129 138.6265918 347.47130127 139.51193237 348.06776428 C142.28176056 349.93610681 145.04193584 351.81821417 147.80252075 353.70018005 C150.68953735 355.65120745 153.57920113 357.59825077 156.4697113 359.5440979 C158.28904674 360.7699989 160.10663111 361.99850449 161.92207336 363.23016357 C168.05787881 367.38400446 174.28297755 371.37679674 180.55252075 375.32518005 C187.88957205 379.96246228 195.13262378 384.71460374 202.31033325 389.5947113 C204.27523511 390.92490518 206.2401608 392.25506386 208.20510864 393.58518982 C212.14355567 396.25510199 216.07673475 398.93258045 220.00735474 401.61399841 C221.8361663 402.8563348 223.66502186 404.09860643 225.493927 405.34080505 C226.33879669 405.92034439 227.18366638 406.49988373 228.05413818 407.09698486 C228.84452484 407.63280685 229.6349115 408.16862885 230.44924927 408.72068787 C231.13568008 409.18920166 231.8221109 409.65771545 232.52934265 410.14042664 C234.81480145 411.50715063 237.13691207 412.42342941 239.61502075 413.38768005 C239.68368294 367.04204497 239.73654755 320.69641528 239.76821674 274.35073936 C239.77196887 268.87957303 239.77585184 263.40840679 239.77981567 257.9372406 C239.78060261 256.848027 239.78138954 255.7588134 239.78220031 254.63659333 C239.79525527 236.99874041 239.81890963 219.36091682 239.84647914 201.7230813 C239.87453081 183.62589108 239.89119651 165.52871622 239.89728624 147.43150514 C239.90140316 136.26399808 239.91440762 125.0965739 239.93877015 113.92909234 C239.95462437 106.2717919 239.95942181 98.61453432 239.95552488 90.95721865 C239.95360286 86.53894046 239.95655546 82.12080715 239.97263718 77.7025547 C239.98726143 73.65513193 239.98795677 69.60795116 239.97771744 65.56051712 C239.97645236 64.0987198 239.98023653 62.63690723 239.9896703 61.17513979 C240.31797342 48.79905358 240.31797342 48.79905358 235.3400628 37.81346756 C229.35666062 32.28338964 222.00299622 32.09266691 214.32989502 32.12698364 C213.41554841 32.1231581 212.5012018 32.11933255 211.55914772 32.11539108 C208.50626115 32.10510179 205.45356409 32.1090455 202.40066528 32.11302185 C200.20736518 32.10867312 198.01406659 32.10348944 195.82077026 32.09753418 C189.8703399 32.08415013 183.91997307 32.08356487 177.96953058 32.08609748 C172.99936598 32.08716761 168.0292142 32.08228272 163.05905235 32.07749206 C150.66181199 32.06576482 138.26460294 32.06662078 125.8673607 32.07304887 C115.11354961 32.0782168 104.35982913 32.06696441 93.60603596 32.04795065 C82.55085023 32.0285546 71.49570943 32.02061052 60.44050682 32.0240739 C54.23914608 32.02588603 48.03786833 32.02325748 41.83652115 32.00935936 C36.00390595 31.99677661 30.171472 31.99872952 24.33885956 32.01177025 C22.20115726 32.0141346 20.06344219 32.01140642 17.92575455 32.00314713 C15.00166493 31.99266618 12.07818193 32.00079138 9.15411377 32.01345825 C8.31353176 32.00608397 7.47294976 31.99870968 6.60689557 31.99111193 C-0.14177337 32.05237356 -7.55533357 32.89850272 -12.32247925 38.13768005 Z " fill="#000000" transform="translate(144.38497924804688,31.612319946289063)"/>
<path d="M0 0 C7.06491806 4.0636878 9.68972552 12.2177382 12.578125 19.453125 C19.1102926 36.82632026 19.1102926 36.82632026 30.74121094 50.59277344 C36.88222302 52.944863 43.01237753 52.84437067 49.50732422 52.54785156 C55.26950157 52.46442811 60.83640867 53.53373556 66.5 54.5 C67.54494629 54.64453613 68.58989258 54.78907227 69.66650391 54.93798828 C76.93690506 56.00769222 81.05479643 57.59715413 86.1875 63 C88.53575726 68.05778486 88.78347307 73.01685793 87.8125 78.5 C85.21329219 82.8299125 82.24314112 86.31628359 78.671875 89.87109375 C78.18599915 90.35651138 77.70012329 90.84192902 77.19952393 91.34205627 C76.17656562 92.36201311 75.15119775 93.37955854 74.12353516 94.39477539 C72.5753091 95.92484115 71.03514054 97.46266025 69.49609375 99.00195312 C64.58627736 103.89366489 59.62505448 108.68416112 54.34472656 113.17993164 C53.12052387 114.23462635 51.95509642 115.35740358 50.8125 116.5 C50.3802674 126.6593454 53.49136523 137.5763275 55.30395508 147.54711914 C55.72023107 149.84681059 56.1280653 152.14788628 56.53515625 154.44921875 C56.66326187 155.13900314 56.79136749 155.82878754 56.9233551 156.53947449 C58.19585163 163.77425996 58.78650695 170.21290197 55.05078125 176.734375 C52.88767904 179.81867216 51.32476108 181.02115323 47.8125 182.5 C37.4204437 183.93197259 30.35447974 181.06350415 21.4375 176 C20.25191929 175.35528394 19.06480819 174.7133746 17.8762207 174.07421875 C12.85689318 171.36161356 7.89362845 168.55162952 2.94140625 165.71875 C2.25804199 165.33525391 1.57467773 164.95175781 0.87060547 164.55664062 C-0.85586571 163.5814165 -2.56368684 162.57337076 -4.26953125 161.5625 C-8.09505587 160.16953789 -9.43964263 161.0236829 -13.1875 162.5 C-15.41175149 163.55961176 -17.61527844 164.66339424 -19.80078125 165.80078125 C-20.41463181 166.11903366 -21.02848236 166.43728607 -21.66093445 166.7651825 C-22.95364656 167.43638676 -24.24528372 168.10966502 -25.53588867 168.78491211 C-27.4819585 169.80306101 -29.43105779 170.81519101 -31.38085938 171.82617188 C-32.6459897 172.4840744 -33.91096584 173.1422735 -35.17578125 173.80078125 C-35.7912532 174.12064499 -36.40672516 174.44050873 -37.04084778 174.77006531 C-40.48336234 176.57033212 -43.84606965 178.46529712 -47.1875 180.4453125 C-52.73257151 183.55063016 -57.99256008 183.35813811 -64.1875 182.5 C-69.13489523 180.41688622 -71.14343415 177.49583474 -73.5234375 172.890625 C-75.33963624 166.35230955 -73.84717402 159.45804337 -72.65625 152.92578125 C-72.50087769 152.03892136 -72.34550537 151.15206146 -72.1854248 150.23832703 C-71.69250818 147.42854449 -71.19075451 144.62044785 -70.6875 141.8125 C-70.18514923 138.99370047 -69.68483372 136.17459259 -69.1895752 133.35453796 C-68.88231499 131.60638312 -68.57089951 129.85895205 -68.25476074 128.11238098 C-67.19809982 122.34272576 -67.19809982 122.34272576 -67.1875 116.5 C-68.62763895 114.41669295 -68.62763895 114.41669295 -70.6875 112.625 C-71.3371875 112.00882812 -71.986875 111.39265625 -72.65625 110.7578125 C-74.06372832 109.50237659 -75.47606231 108.25212818 -76.90673828 107.02319336 C-82.52722419 102.18093943 -87.81567482 97.05525156 -93.0625 91.8125 C-94.34253906 90.55083008 -94.34253906 90.55083008 -95.6484375 89.26367188 C-96.463125 88.45091797 -97.2778125 87.63816406 -98.1171875 86.80078125 C-99.21909424 85.70503784 -99.21909424 85.70503784 -100.34326172 84.5871582 C-104.5701247 79.80354004 -104.62091777 75.6262128 -104.5 69.4140625 C-103.94062652 64.19790482 -101.63202134 61.68168809 -97.69580078 58.46166992 C-93.39993292 55.68032589 -88.66361603 55.28286418 -83.6796875 54.61328125 C-82.17512497 54.39226997 -82.17512497 54.39226997 -80.64016724 54.16679382 C-77.44948651 53.70104056 -74.25631404 53.25620566 -71.0625 52.8125 C-67.86233853 52.35351366 -64.66281217 51.89031369 -61.46340942 51.42607117 C-59.47625869 51.1393097 -57.48853906 50.85645694 -55.50021362 50.57795715 C-54.59892731 50.45079819 -53.69764099 50.32363922 -52.76904297 50.19262695 C-51.97883759 50.08255814 -51.1886322 49.97248932 -50.3744812 49.85908508 C-49.6527774 49.74058701 -48.93107361 49.62208893 -48.1875 49.5 C-47.48173325 49.40472519 -46.77596649 49.30945038 -46.04881287 49.21128845 C-43.42861691 48.20999783 -43.0091078 46.93516904 -41.82495117 44.42675781 C-41.19861031 43.12970917 -41.19861031 43.12970917 -40.55961609 41.80645752 C-40.12099747 40.86485779 -39.68237885 39.92325806 -39.23046875 38.953125 C-38.27294815 36.9738801 -37.31526053 34.994716 -36.35742188 33.015625 C-34.86435094 29.88677213 -33.37742551 26.75512874 -31.89526367 23.62109375 C-30.45994984 20.59907881 -29.00250135 17.58850013 -27.54296875 14.578125 C-26.89414986 13.17787079 -26.89414986 13.17787079 -26.23222351 11.74932861 C-23.38125147 5.89199861 -20.86120705 2.77044819 -15.1875 -0.5 C-9.87825405 -2.26974865 -5.1133605 -2.19835764 0 0 Z M-8.1875 52.5 C-8.46424561 53.04414551 -8.74099121 53.58829102 -9.02612305 54.14892578 C-10.30124887 56.64504098 -11.58800542 59.13498496 -12.875 61.625 C-13.52758789 62.90890625 -13.52758789 62.90890625 -14.19335938 64.21875 C-21.04827378 77.42080738 -21.04827378 77.42080738 -28.890625 79.93603516 C-33.27869922 81.01346409 -37.70890518 81.62227045 -42.1875 82.1875 C-43.63576172 82.38182617 -43.63576172 82.38182617 -45.11328125 82.58007812 C-47.47037831 82.89513565 -49.82824959 83.20157529 -52.1875 83.5 C-47.6003988 88.9998819 -42.72970736 93.97357841 -37.578125 98.94921875 C-32.53398971 104.33127814 -32.89442321 108.61635687 -32.984375 115.8125 C-33.21601522 120.01766092 -33.83888329 123.99130386 -34.75 128.09765625 C-35.20837511 130.61462674 -35.26030339 132.94733103 -35.1875 135.5 C-31.07178535 134.30430308 -27.61333697 132.6736288 -23.93847656 130.47607422 C-18.03965999 127.01385887 -12.6041457 124.11244424 -5.5859375 124.5546875 C1.80796051 126.61138097 8.45806918 130.69847304 15.03173828 134.58203125 C16.77487679 135.65273196 16.77487679 135.65273196 18.8125 135.5 C18.67014543 133.77054347 18.52345618 132.04144346 18.375 130.3125 C18.29378906 129.34957031 18.21257812 128.38664062 18.12890625 127.39453125 C17.86826172 124.56320833 17.86826172 124.56320833 17.296875 122.0703125 C16.69524582 118.87779637 16.56699992 115.81023279 16.5 112.5625 C16.44392578 110.78552734 16.44392578 110.78552734 16.38671875 108.97265625 C17.3120046 101.42605877 23.35487793 96.73269151 28.5625 91.6875 C29.9344095 90.34982484 31.30432209 89.01009748 32.671875 87.66796875 C33.27483398 87.08297607 33.87779297 86.4979834 34.49902344 85.89526367 C35.9267407 84.69801938 35.9267407 84.69801938 35.8125 83.5 C35.08659668 83.39977539 34.36069336 83.29955078 33.61279297 83.19628906 C30.30190919 82.73002697 26.99491212 82.24025799 23.6875 81.75 C22.54539062 81.59273437 21.40328125 81.43546875 20.2265625 81.2734375 C13.22659546 80.21530295 8.21614757 79.3302628 3.37890625 73.88671875 C-0.67543825 67.02430686 -3.90897447 59.75621789 -7.1875 52.5 C-7.5175 52.5 -7.8475 52.5 -8.1875 52.5 Z " fill="#000000" transform="translate(264.1875,117.5)"/>
</svg>
