<?xml version="1.0" encoding="UTF-8"?>
<svg version="1.1" xmlns="http://www.w3.org/2000/svg" width="512" height="512">
<path d="M0 0 C1.09010897 -0.00445784 2.18021794 -0.00891569 3.30336052 -0.01350862 C5.10682116 -0.01323207 5.10682116 -0.01323207 6.94671535 -0.01294994 C8.22037486 -0.01662663 9.49403437 -0.02030332 10.80628961 -0.02409142 C14.3488996 -0.03411533 17.89149265 -0.03782885 21.43411481 -0.04048073 C25.25229226 -0.04438271 29.07045627 -0.05396123 32.88862514 -0.0626936 C42.11404851 -0.0824626 51.33947298 -0.09252546 60.56491223 -0.10142139 C64.90953131 -0.10580419 69.25414917 -0.11117108 73.59876728 -0.11641026 C88.04224965 -0.13342413 102.48573126 -0.14791769 116.92922211 -0.155159 C120.67800873 -0.15706889 124.42679534 -0.15898922 128.17558193 -0.16094494 C129.57319615 -0.16167055 129.57319615 -0.16167055 130.99904501 -0.16241082 C146.08824263 -0.17070877 161.17736092 -0.19604099 176.26652391 -0.22852562 C191.75913878 -0.26160674 207.25171335 -0.27960877 222.74436373 -0.28280324 C231.44250051 -0.28496752 240.14052165 -0.29370408 248.838624 -0.31926441 C256.24752887 -0.34098593 263.65629001 -0.34901477 271.06522311 -0.33929763 C274.84371737 -0.3347569 278.6219152 -0.33662554 282.40036869 -0.35605907 C286.50228845 -0.37697347 290.60355257 -0.36669263 294.70550442 -0.35352612 C295.89219646 -0.36449536 297.0788885 -0.37546461 298.30154091 -0.38676625 C308.57397994 -0.30723754 316.49614677 2.16455553 324.01664639 9.27484608 C330.72452178 16.38609037 333.07842952 22.98296373 333.10649014 32.71625233 C333.11314693 33.52986729 333.11980373 34.34348225 333.12666225 35.1817522 C333.13674901 36.89708682 333.14148051 38.61246035 333.1411581 40.32782459 C333.14552235 42.92867429 333.18185748 45.52781263 333.21977139 48.1283617 C333.33159065 64.38144841 333.33159065 64.38144841 328.77055264 71.13422108 C328.22914639 71.94375233 327.68774014 72.75328358 327.12992764 73.58734608 C321.23656466 80.16731445 314.32619043 85.65866738 305.18433154 86.3218286 C301.88090304 86.3986905 298.58265042 86.41025404 295.27831936 86.40164661 C293.37116887 86.40844328 293.37116887 86.40844328 291.42549008 86.41537726 C287.9029657 86.4275961 284.38053637 86.42734811 280.85799563 86.42498851 C277.05620434 86.42458005 273.2544434 86.43562234 269.45266628 86.44510365 C262.00615976 86.46170919 254.55968491 86.46721302 247.11316142 86.4683284 C241.05837863 86.46927922 235.00360628 86.4733912 228.94882679 86.47972965 C211.77468381 86.49734192 194.60056582 86.50656871 177.42641375 86.5050687 C176.50075351 86.50498879 175.57509327 86.50490888 174.62138271 86.50482655 C173.69458933 86.50474478 172.76779594 86.50466302 171.81291791 86.50457878 C156.79894648 86.5037662 141.78507544 86.52289706 126.77113304 86.55110328 C111.34734357 86.57985028 95.92360302 86.59364253 80.49978608 86.59191573 C71.84358747 86.59125239 63.18749407 86.59671996 54.53131962 86.61827183 C47.15983764 86.63650768 39.78850854 86.64081138 32.41701374 86.62725298 C28.65863272 86.62073501 24.9005448 86.62056328 21.14219189 86.63795948 C17.06047556 86.6566574 12.97943414 86.64410505 8.89770412 86.6286974 C7.13094128 86.64412808 7.13094128 86.64412808 5.32848626 86.65987051 C-5.50329147 86.56971268 -14.36527502 83.99126204 -22.28413486 76.42718983 C-28.09193045 69.58145487 -30.37976801 62.13659994 -30.46772861 53.31781483 C-30.47580036 52.54671879 -30.48387211 51.77562275 -30.49218845 50.98116016 C-30.5060168 49.34624945 -30.51674455 47.71131001 -30.52461338 46.07635975 C-30.53608324 44.41904599 -30.55645519 42.7617677 -30.58613682 41.10468006 C-30.82161857 27.95059033 -29.95851124 18.11730474 -20.52241611 8.11468983 C-14.71766161 3.10104326 -7.66161965 0.01451226 0 0 Z M-6.22944736 26.13422108 C-9.6577234 30.90265262 -8.59831668 37.3996404 -8.60444736 43.00922108 C-8.62893955 44.18097889 -8.65343174 45.3527367 -8.67866611 46.56000233 C-8.75210373 55.18626166 -8.75210373 55.18626166 -4.22944736 62.13422108 C-1.08920992 64.08767487 1.31109001 64.38522493 4.98084068 64.38869667 C6.04119024 64.39452886 7.1015398 64.40036106 8.19402117 64.40636998 C9.93986422 64.400701 9.93986422 64.400701 11.72097683 64.39491749 C12.95818307 64.39874304 14.1953893 64.40256858 15.47008663 64.40651006 C18.90614618 64.4150553 22.34199221 64.41460188 25.77804577 64.41032946 C29.48295705 64.40786682 33.18784297 64.41687063 36.89274502 64.42436695 C44.15169312 64.43712874 51.41060425 64.43890581 58.66956168 64.43656669 C64.568551 64.43478506 70.46752909 64.43652983 76.36651707 64.44079113 C77.20546595 64.44138632 78.04441483 64.44198151 78.9087864 64.44259473 C80.61300261 64.44380646 82.31721882 64.44502059 84.02143503 64.44623711 C100.01040258 64.4571183 115.99934905 64.45494739 131.9883178 64.44885226 C146.62169487 64.44368228 161.2550054 64.45493967 175.88836931 64.47395048 C190.90752122 64.49331319 205.92664161 64.50158766 220.94580609 64.49782723 C229.38049259 64.49591284 237.81512244 64.49842587 246.24979877 64.51254177 C253.43007771 64.52443657 260.61026512 64.52588188 267.79054528 64.5137516 C271.45495919 64.50784956 275.11920553 64.50679984 278.78360844 64.51875401 C282.7535376 64.53155453 286.7232109 64.52117985 290.6931448 64.50844288 C291.85480945 64.51581716 293.01647409 64.52319145 294.2133407 64.5307892 C295.27629801 64.52358265 296.33925531 64.51637611 297.43442345 64.50895119 C298.80898623 64.50903371 298.80898623 64.50903371 300.21131796 64.5091179 C304.13447975 63.93442231 306.79071415 62.1196939 309.55375576 59.34076405 C312.18452085 54.57012704 311.2812925 48.57008435 311.27055264 43.25922108 C311.29891201 41.99207264 311.32727139 40.7249242 311.35649014 39.41937733 C311.5727404 31.88537867 311.5727404 31.88537867 308.42680264 25.31390858 C304.78408158 22.32473453 302.24717635 22.0089054 297.68610573 22 C296.09949301 21.99331323 296.09949301 21.99331323 294.48082751 21.98649138 C293.31470142 21.98667574 292.14857533 21.98686011 290.94711208 21.98705006 C289.71146584 21.98337337 288.47581959 21.97969668 287.20272952 21.97590858 C283.76640101 21.96677873 280.33012027 21.9621714 276.89378417 21.95951927 C273.1902035 21.95561703 269.48663668 21.94603873 265.78306484 21.9373064 C256.83649376 21.91754115 247.88992154 21.90747634 238.94333407 21.89857861 C234.73168995 21.89419638 230.52004709 21.88882945 226.30840397 21.88358974 C212.31098822 21.86657846 198.31357326 21.85208333 184.31614876 21.844841 C180.6835184 21.84293107 177.05088805 21.84101074 173.41825771 21.83905506 C172.5153718 21.83857132 171.6124859 21.83808758 170.68223981 21.83758918 C156.04946218 21.82928527 141.41676621 21.80394182 126.78402426 21.77147438 C111.76603386 21.73842334 96.74808499 21.72039407 81.73005801 21.71719676 C73.29585444 21.71503 64.86176998 21.70625696 56.42760181 21.68073559 C49.24621972 21.65905538 42.06498568 21.65096496 34.88357457 21.66070237 C31.21898745 21.66525472 27.55470598 21.663307 23.89016056 21.64394093 C19.91829401 21.6231318 15.94685112 21.63326992 11.97494411 21.64647388 C10.23579323 21.63002002 10.23579323 21.63002002 8.46150798 21.61323375 C2.2681326 21.6631084 -1.54519149 21.92332067 -6.22944736 26.13422108 Z " fill="#000000" transform="translate(115.22944736480713,340.86577892303467)"/>
<path d="M0 0 C1.25751387 -0.00382555 2.51502774 -0.00765109 3.81064808 -0.01159257 C7.28498355 -0.02184577 10.75921552 -0.01969762 14.23355937 -0.01541197 C17.98689423 -0.01293987 21.74020449 -0.02196492 25.49353027 -0.02944946 C32.84050372 -0.04218504 40.18744059 -0.04399158 47.53442322 -0.0416492 C53.50764457 -0.0398646 59.48085483 -0.04161872 65.45407486 -0.04587364 C66.30491497 -0.04646883 67.15575509 -0.04706402 68.03237823 -0.04767724 C69.76098465 -0.04888902 71.48959107 -0.05010316 73.21819748 -0.05131962 C89.42145909 -0.06219077 105.62469987 -0.06003468 121.82796265 -0.05393478 C136.64200329 -0.04876601 151.45597817 -0.06002075 166.27000581 -0.07903299 C181.49158062 -0.0984181 196.71312434 -0.10666621 211.93471158 -0.10290974 C220.47625018 -0.10099872 229.01773281 -0.10347565 237.55926132 -0.11762428 C244.83079445 -0.12954762 252.10223714 -0.1309323 259.37377153 -0.11883412 C263.08136263 -0.1129521 266.7887884 -0.11182711 270.49636841 -0.12383652 C274.52130973 -0.13672204 278.54585888 -0.12621484 282.57080078 -0.11352539 C283.73462748 -0.12089968 284.89845419 -0.12827396 286.09754837 -0.13587171 C297.38597557 -0.06109156 306.25798709 2.1686658 314.41238403 10.26069641 C320.31977095 17.53424561 322.72030774 24.18657965 322.74832153 33.58882141 C322.75497833 34.37786865 322.76163513 35.16691589 322.76849365 35.97987366 C322.77857948 37.64393295 322.78331194 39.30803236 322.7829895 40.97212219 C322.78734748 43.4895827 322.82366571 46.00526593 322.86160278 48.52241516 C322.94046674 59.71630668 322.11815529 69.16095648 314.11550903 77.72944641 C305.52031501 85.45723554 297.01001914 86.55702467 285.7928009 86.52812195 C284.50770545 86.53265306 283.22261 86.53718417 281.89857227 86.54185259 C278.33798221 86.55407227 274.77748619 86.55382336 271.21687996 86.55146384 C267.3742269 86.55105541 263.53160388 86.56209729 259.68896484 86.57157898 C252.16291796 86.5881842 244.63690241 86.59368831 237.11083873 86.59480374 C230.992633 86.59575442 224.87443759 86.59986574 218.75623512 86.60620499 C201.40594829 86.62381597 184.05568619 86.63304406 166.70539036 86.63154404 C165.77024368 86.63146413 164.835097 86.63138421 163.87161255 86.63130188 C162.46717777 86.63117924 162.46717777 86.63117924 161.03437058 86.63105412 C145.8606186 86.63024122 130.68696589 86.64938015 115.51324262 86.67757861 C99.92900112 86.70631122 84.34480802 86.72011871 68.76053935 86.71839106 C60.01274315 86.7177273 51.26505101 86.72321364 42.51727867 86.74474716 C35.06925058 86.7629639 27.62137374 86.76730227 20.17333301 86.75372832 C16.3746956 86.74720115 12.57634833 86.74707208 8.77773857 86.76443481 C4.65591251 86.78308082 0.53475731 86.77060461 -3.58708191 86.75517273 C-4.78242233 86.76545986 -5.97776275 86.77574698 -7.20932561 86.78634584 C-17.30607767 86.70279502 -24.39637898 84.07256428 -31.79855347 77.18647766 C-38.24092392 70.25178632 -40.89369156 62.80562361 -40.92355347 53.37007141 C-40.93021027 52.62541626 -40.93686707 51.88076111 -40.94372559 51.11354065 C-40.95380722 49.54363964 -40.958544 47.97369616 -40.95822144 46.40376282 C-40.96257847 44.03111595 -40.99889736 41.66035669 -41.03683472 39.28804016 C-41.1203423 28.08624159 -39.63938806 19.09232625 -32.41574097 10.08100891 C-23.22219268 0.92674929 -12.29401548 -0.03977021 0 0 Z M-15.58761597 25.26069641 C-19.83475917 30.59129452 -19.02988398 37.33183316 -18.96261597 43.82319641 C-18.97421753 44.94661438 -18.98581909 46.07003235 -18.99777222 47.22749329 C-18.99390503 48.31223938 -18.99003784 49.39698547 -18.98605347 50.51460266 C-18.98266968 51.49759338 -18.97928589 52.48058411 -18.97579956 53.49336243 C-18.40485475 57.56358845 -16.83108472 60.12779557 -13.80739254 62.88262427 C-11.10312112 64.56147842 -9.51381057 64.63654697 -6.34609318 64.63821983 C-5.27877683 64.64604308 -4.21146048 64.65386632 -3.11180121 64.66192663 C-1.35428531 64.65188838 -1.35428531 64.65188838 0.43873596 64.64164734 C2.30679597 64.6486673 2.30679597 64.6486673 4.21259457 64.65582907 C7.67155632 64.66573885 11.1300308 64.66215336 14.58896315 64.65287042 C18.31842024 64.64609421 22.04783415 64.65655409 25.77728271 64.66481018 C33.0843781 64.6781654 40.39138115 64.67526172 47.69848018 64.66657226 C53.63656533 64.65980263 59.57462458 64.65887587 65.51271248 64.66214371 C66.77946188 64.66283326 66.77946188 64.66283326 68.07180219 64.66353673 C69.7872924 64.66449589 71.50278261 64.66546853 73.21827281 64.66645451 C89.31312385 64.67501378 105.40792368 64.66516613 121.50276632 64.64905341 C135.31682146 64.63565217 149.13080097 64.63797568 162.94485474 64.65180969 C178.97977302 64.66786022 195.01464638 64.67418719 211.04957157 64.6649729 C212.75912765 64.66401724 214.46868373 64.66307413 216.17823982 64.66214371 C217.01940994 64.66168088 217.86058006 64.66121805 218.72724019 64.6607412 C224.65858386 64.65814955 230.58989906 64.66252613 236.52123833 64.66958237 C243.74910063 64.67799182 250.97686517 64.67572904 258.20471626 64.65974014 C261.89342858 64.65184953 265.58197785 64.64877912 269.27068901 64.65868759 C273.26695112 64.66925991 277.26280065 64.656646 281.25904846 64.64164734 C282.42849501 64.6483395 283.59794155 64.65503167 284.80282587 64.66192663 C286.40771201 64.65019176 286.40771201 64.65019176 288.0450201 64.63821983 C288.96747082 64.63773278 289.88992153 64.63724572 290.8403253 64.6367439 C293.9616122 64.18039658 295.85237392 63.07171881 298.41238403 61.26069641 C302.00080565 56.28371165 300.78149909 49.16400678 300.78738403 43.32319641 C300.81187622 42.04766907 300.83636841 40.77214172 300.86160278 39.45796204 C300.86546997 38.22884094 300.86933716 36.99971985 300.87332153 35.73335266 C300.88153931 34.61194885 300.88975708 33.49054504 300.89822388 32.3351593 C300.29091083 28.49199688 299.22794019 26.92536689 296.41238403 24.26069641 C290.63315369 21.55213546 284.63049397 21.97932152 278.38676453 22 C277.16559478 21.99617445 275.94442504 21.99234891 274.68625015 21.98840743 C271.30417535 21.97988089 267.92231822 21.9803085 264.54024971 21.98458803 C260.8898688 21.98705573 257.2395134 21.97804057 253.58914185 21.97055054 C246.44075591 21.95780298 239.29240754 21.9560099 232.14401216 21.9583508 C226.33376058 21.96013397 220.5235204 21.95838435 214.71327019 21.95412636 C213.88627118 21.95353117 213.05927217 21.95293598 212.20721258 21.95232276 C210.5271589 21.951111 208.84710522 21.94989687 207.16705155 21.94868038 C191.41264581 21.93780473 175.65826148 21.93996752 159.90385454 21.94606522 C145.49181723 21.95123506 131.0798475 21.93997724 116.66782356 21.92096701 C101.867821 21.90159471 87.06785041 21.89333149 72.26783508 21.89709026 C63.9594287 21.89900314 55.65107984 21.89650618 47.34268379 21.88237572 C40.27010761 21.87046874 33.19762436 21.86904937 26.12504692 21.88116588 C22.51707784 21.88705925 18.90927883 21.88814147 15.30132103 21.87616348 C11.38912525 21.86332643 7.47718783 21.87375825 3.56498718 21.88647461 C2.42607625 21.87910032 1.28716532 21.87172604 0.11374193 21.86412829 C-5.88563049 21.90523484 -10.32853762 22.26944713 -15.58761597 25.26069641 Z " fill="#000000" transform="translate(125.58761596679688,105.73930358886719)"/>
<path d="M0 0 C1.92658483 -0.00679667 1.92658483 -0.00679667 3.89209056 -0.01373065 C7.45075001 -0.02595035 11.00931538 -0.0257014 14.56799102 -0.02334189 C18.40861821 -0.02293346 22.24921534 -0.03397542 26.08982849 -0.04345703 C33.61220037 -0.06006265 41.13454091 -0.06556639 48.65692958 -0.06668179 C54.77274305 -0.06763253 60.88854619 -0.07174411 67.00435638 -0.07808304 C84.34957756 -0.09569472 101.69477399 -0.10492209 119.04000416 -0.10342209 C119.97488812 -0.10334218 120.90977207 -0.10326227 121.87298584 -0.10317993 C123.27702715 -0.10305729 123.27702715 -0.10305729 124.70943293 -0.10293217 C139.87604285 -0.10211942 155.04255342 -0.1212544 170.20913461 -0.14945666 C185.78773088 -0.17819611 201.36627873 -0.19199636 216.94490218 -0.19026911 C225.6888179 -0.18960555 234.43262948 -0.19508303 243.1765213 -0.21662521 C250.62195897 -0.23485103 258.0672453 -0.23917292 265.51269564 -0.22560637 C269.30943174 -0.21908357 273.10587763 -0.21893427 276.90258598 -0.23631287 C281.02406192 -0.25498348 285.14486814 -0.24247114 289.26635742 -0.22705078 C290.458785 -0.23733791 291.65121258 -0.24762503 292.87977433 -0.25822389 C302.49887439 -0.17876799 310.68475254 1.86672315 317.855896 8.56430054 C324.23781267 15.6625548 326.69477809 23.09543678 326.7230835 32.59555054 C326.7297403 33.38459778 326.73639709 34.17364502 326.74325562 34.98660278 C326.75334145 36.65066208 326.7580739 38.31476149 326.75775146 39.97885132 C326.76210945 42.49631183 326.79842768 45.01199506 326.83636475 47.52914429 C326.9198942 59.31205832 325.805239 68.57827984 317.37542725 77.51351929 C308.30043233 85.5187702 298.5420384 86.56562555 286.91978455 86.52812195 C285.6631251 86.5319475 284.40646566 86.53577304 283.11172563 86.53971452 C279.63513089 86.54998097 276.15863944 86.54781616 272.68203628 86.54353392 C268.92800214 86.54106421 265.17399271 86.55008396 261.41996765 86.55757141 C254.069515 86.57031405 246.71909889 86.57211261 239.36863705 86.56977115 C233.39253137 86.56798718 227.41643677 86.56973932 221.44033241 86.57399559 C220.16386901 86.57488837 220.16386901 86.57488837 218.86161846 86.57579919 C217.13277051 86.57701096 215.40392256 86.5782251 213.67507461 86.57944157 C197.46514093 86.59031563 181.25522805 86.58815537 165.04529319 86.58205672 C150.22472245 86.57688886 135.40421746 86.58813979 120.58365973 86.60715494 C105.35759653 86.62654023 90.13156441 86.63478805 74.90548879 86.63103169 C66.36058184 86.62912055 57.81573084 86.63159868 49.27083397 86.64574623 C41.99561684 86.65766988 34.72049009 86.65905397 27.44527169 86.64695606 C23.73566232 86.64107399 20.02621817 86.63994918 16.31661987 86.65195847 C12.28943558 86.66484399 8.26264325 86.65433676 4.23545837 86.64164734 C2.48869514 86.65270877 2.48869514 86.65270877 0.70664376 86.66399366 C-10.11907127 86.59231937 -19.23326183 84.36278902 -27.612854 77.26742554 C-36.5687359 67.9986744 -37.12696631 57.48895873 -37.05889893 45.18417358 C-37.05038326 42.83798535 -37.07922872 40.49423419 -37.11090088 38.14828491 C-37.16610148 26.56790564 -35.64114377 17.6615301 -27.472229 9.02133179 C-19.00035664 1.03000681 -11.43925235 -0.02949156 0 0 Z M-13.612854 27.26742554 C-15.2684194 32.23412173 -14.839336 37.37950682 -14.862854 42.57992554 C-14.883479 43.70849976 -14.904104 44.83707397 -14.925354 45.99984741 C-15.12653816 54.15773502 -15.12653816 54.15773502 -11.612854 61.26742554 C-5.35268604 64.82495303 0.45318048 64.69000206 7.53302002 64.64837646 C8.75504419 64.65305644 9.97706836 64.65773641 11.23612356 64.6625582 C14.61604194 64.67243546 17.99545835 64.66890574 21.37534595 64.65959954 C25.02503333 64.6528025 28.67467735 64.66329352 32.32435608 64.67153931 C39.46928372 64.68487186 46.61411677 64.68200105 53.7590481 64.67330138 C59.56641899 64.66652336 65.37376338 64.66560863 71.18113708 64.66887283 C72.42143237 64.66956238 72.42143237 64.66956238 73.68678412 64.67026586 C75.36659627 64.67122505 77.04640841 64.67219769 78.72622055 64.67318363 C94.4739678 64.68173613 110.22166264 64.67190561 125.9694013 64.65578254 C139.4786302 64.64237948 152.98778177 64.64470761 166.49700928 64.65853882 C182.18880756 64.67459712 197.88055993 64.68091217 213.57236528 64.67170203 C215.24596182 64.67074639 216.91955836 64.66980328 218.59315491 64.66887283 C219.41657398 64.66841001 220.23999305 64.66794718 221.08836421 64.66747033 C226.88805787 64.66488119 232.68772236 64.6692498 238.4874115 64.67631149 C245.55631022 64.68472946 252.62510902 64.68244012 259.69399631 64.66646926 C263.29994256 64.65859051 266.90572227 64.65548809 270.51166725 64.66541672 C274.42162947 64.67601952 278.33131957 64.66335036 282.24127197 64.64837646 C283.94861519 64.65841471 283.94861519 64.65841471 285.69045019 64.66865575 C292.47097303 64.61819161 298.11967155 64.3276068 303.29974365 59.47616577 C304.75522726 56.51977597 304.77564415 54.21821422 304.7855835 50.92758179 C304.78945068 49.69974976 304.79331787 48.47191772 304.79730225 47.20687866 C304.78570068 45.92748413 304.77409912 44.6480896 304.762146 43.32992554 C304.77954834 41.41663452 304.77954834 41.41663452 304.79730225 39.46469116 C304.79343506 38.23557007 304.78956787 37.00644897 304.7855835 35.74008179 C304.78219971 34.61867798 304.77881592 33.49727417 304.77532959 32.34188843 C304.33650667 28.86635568 303.5289501 27.02424811 301.387146 24.26742554 C298.25562946 22.29303276 295.8158223 22.01512557 292.14841652 22.00736332 C291.08171687 22.00029773 290.01501722 21.99323214 288.91599333 21.98595244 C287.74499819 21.98836752 286.57400304 21.99078261 285.36752319 21.99327087 C284.12285542 21.9880342 282.87818764 21.98279752 281.59580266 21.97740215 C278.13887879 21.96497838 274.68215818 21.96155906 271.22522593 21.96199906 C267.497793 21.96035186 263.77039721 21.94728725 260.04298401 21.93580627 C251.89225205 21.91295077 243.74154612 21.90503527 235.59078646 21.89997983 C230.50243905 21.89672384 225.4140992 21.89020201 220.32575607 21.88297844 C206.23994248 21.86341281 192.15413593 21.84700805 178.06830788 21.84410191 C177.1668363 21.84391434 176.26536472 21.84372677 175.33657583 21.84353351 C173.50904965 21.84316726 171.68152348 21.84280356 169.85399731 21.8424424 C168.94680161 21.84225959 168.03960591 21.84207678 167.10491943 21.84188843 C166.1966178 21.84170788 165.28831616 21.84152733 164.35249023 21.84134131 C149.62921831 21.83779839 134.90609252 21.81076851 120.1828713 21.77339054 C105.069922 21.73532984 89.95704526 21.7159446 74.84404695 21.71564239 C66.35729881 21.71505736 57.87072507 21.70653597 49.38402176 21.67764473 C42.15871697 21.65316085 34.93365018 21.64582766 27.70831515 21.66089226 C24.02138471 21.66807324 20.33492453 21.66715339 16.64804649 21.64448166 C12.65192876 21.62014352 8.65688611 21.63449358 4.66073608 21.6526947 C2.91093553 21.63289475 2.91093553 21.63289475 1.12578547 21.6126948 C-5.55186432 21.68239604 -9.14564843 22.11190635 -13.612854 27.26742554 Z " fill="#000000" transform="translate(121.61285400390625,223.73257446289063)"/>
</svg>
