<?xml version="1.0" encoding="UTF-8"?>
<svg version="1.1" xmlns="http://www.w3.org/2000/svg" width="512" height="512">
<path d="M0 0 C13.75981438 8.29737551 19.84934395 22.34521065 26.4453125 36.3046875 C32.95262038 49.99002237 39.75474355 63.52494202 46.5625 77.0625 C59.92071645 103.62596935 59.92071645 103.62596935 65.14216614 114.59117126 C66.07450652 116.54162097 67.01825232 118.48666784 67.97441101 120.42555237 C69.84221045 124.23857265 71.61912473 127.86802526 72.67114258 131.99194336 C73.8112373 135.76680929 74.54533918 137.49063776 77.5625 140.0625 C85.68727823 143.17214969 94.67804865 143.65336892 103.25 144.625 C105.88231075 144.96503407 108.51345672 145.30987404 111.14404297 145.66259766 C116.10024605 146.32219139 121.05821403 146.96341452 126.01948547 147.58374023 C140.92415866 149.45124826 155.78211267 151.64082439 170.64224529 153.83073521 C175.63645895 154.5662045 180.6322274 155.28934657 185.6299715 156.00042629 C188.77471839 156.44877707 191.91856245 156.90324843 195.06225777 157.3589077 C196.52192483 157.56917836 197.98195279 157.7769621 199.44236565 157.98198891 C214.19758329 160.05719596 228.8434816 162.69970716 238.5625 175.0625 C243.08727386 181.52837507 243.98230941 189.87329104 243.1651001 197.60977173 C240.4145902 208.80501284 233.41856774 217.21475826 225.31640625 225.02734375 C224.33519128 225.99798878 223.35548153 226.97015745 222.37718201 227.94374084 C219.82953248 230.47062602 217.26122382 232.9754126 214.68786621 235.47607422 C212.6011895 237.51075922 210.52961566 239.56044963 208.45868015 241.61113644 C192.18490176 257.72491085 192.18490176 257.72491085 184.43028259 264.40968323 C181.24356817 267.22963404 178.2687286 270.25324321 175.28125 273.28125 C174.62346558 273.94282104 173.96568115 274.60439209 173.28796387 275.28601074 C171.21032726 277.37572735 169.13599373 279.46867315 167.0625 281.5625 C164.3259185 284.325917 161.58587737 287.08583722 158.84375 289.84375 C157.92619934 290.77374817 157.92619934 290.77374817 156.9901123 291.72253418 C151.83743281 296.90385714 146.40984832 301.71034269 140.77734375 306.36328125 C139.65005859 307.35908203 139.65005859 307.35908203 138.5 308.375 C137.33791016 309.35919922 137.33791016 309.35919922 136.15234375 310.36328125 C132.31741305 316.87418324 136.32639684 327.97221626 137.60375977 335.09545898 C137.91121628 336.83677345 137.91121628 336.83677345 138.22488403 338.61326599 C138.66761369 341.1200836 139.11181535 343.62664159 139.55734444 346.13296318 C140.2641058 350.11607558 140.96445522 354.10025883 141.66209412 358.0849762 C141.90247386 359.45741634 142.14285799 360.82985572 142.38324642 362.20229435 C142.50356192 362.88924794 142.62387743 363.57620154 142.74783885 364.28397191 C144.37004686 373.54262492 145.99869185 382.80009031 147.64526367 392.05444336 C148.76011358 398.3207037 149.8631744 404.58892223 150.95347828 410.85950142 C151.52838383 414.16311414 152.1106658 417.46498749 152.70395088 420.76537895 C160.01379676 461.4715299 160.01379676 461.4715299 152.5625 474.0625 C152.22347656 474.701875 151.88445312 475.34125 151.53515625 476 C148.04107746 481.76958206 142.00643552 485.54731201 135.68359375 487.703125 C111.18150716 491.85449142 89.26323074 475.32508817 68.81835938 464.05639648 C58.85876529 458.60767725 48.73548242 453.47964567 38.62521362 448.3182373 C29.01693111 443.41090158 19.45115676 438.45536239 10 433.25 C9.13632812 432.77602783 8.27265625 432.30205566 7.3828125 431.8137207 C1.43300905 428.54642931 1.43300905 428.54642931 -1.39794922 426.97265625 C-3.0691407 426.04925671 -4.75279553 425.14850905 -6.4375 424.25 C-7.7059375 423.55970703 -7.7059375 423.55970703 -9 422.85546875 C-13.22351403 421.481473 -16.6370642 422.71190961 -20.61523438 424.4543457 C-21.74251953 425.04304443 -22.86980469 425.63174316 -24.03125 426.23828125 C-24.6504129 426.5590564 -25.26957581 426.87983154 -25.90750122 427.21032715 C-27.92191939 428.256982 -29.92970967 429.31569455 -31.9375 430.375 C-33.35048016 431.11273786 -34.76373179 431.849956 -36.17724609 432.58666992 C-44.70518357 437.04309738 -53.16595304 441.61352951 -61.5859375 446.27075195 C-71.40489655 451.66382239 -81.39872232 456.71705096 -91.37698364 461.80685425 C-100.99771888 466.71583298 -110.55657734 471.69348662 -120 476.9375 C-133.76924426 484.57092611 -147.27507265 491.22010969 -163.43359375 487.34375 C-172.3856902 483.96457204 -177.52860155 478.6875694 -181.4375 470.0625 C-187.78635992 453.91065183 -181.91883588 433.7946442 -178.9621284 417.45374918 C-178.32958007 413.93502355 -177.71719809 410.41279121 -177.10292053 406.89083862 C-175.81009554 399.49574347 -174.497708 392.10422606 -173.18084717 384.71337891 C-171.19104204 373.5440435 -169.21843741 362.37167534 -167.26213652 351.19642437 C-166.53008365 347.01885904 -165.78825988 342.84318466 -165.03844631 338.66877198 C-164.46655726 335.47327181 -163.90606592 332.27576687 -163.34350586 329.07861328 C-163.13419434 327.92954498 -162.92488281 326.78047668 -162.70922852 325.59658813 C-162.43362343 324.01194763 -162.43362343 324.01194763 -162.15245056 322.39529419 C-161.9892932 321.48066469 -161.82613585 320.56603519 -161.65803432 319.62368965 C-161.3548015 316.10207565 -161.59629644 313.2145726 -163.70922852 310.32080078 C-164.23959717 309.80501465 -164.76996582 309.28922852 -165.31640625 308.7578125 C-165.90873047 308.17386719 -166.50105469 307.58992188 -167.11132812 306.98828125 C-167.73458984 306.39402344 -168.35785156 305.79976563 -169 305.1875 C-169.59619141 304.60097656 -170.19238281 304.01445312 -170.80664062 303.41015625 C-173.85521586 300.43673346 -176.97514637 297.57728815 -180.20678711 294.80419922 C-184.29180821 291.24046045 -188.13058637 287.48177529 -191.9375 283.625 C-192.61748047 282.94123291 -193.29746094 282.25746582 -193.99804688 281.55297852 C-196.86975143 278.66512227 -199.73538438 275.77126925 -202.6015625 272.87792969 C-204.71142787 270.74984275 -206.82439645 268.62487083 -208.9375 266.5 C-209.57107422 265.85812744 -210.20464844 265.21625488 -210.85742188 264.55493164 C-214.56497391 260.8274413 -218.39453967 257.32118748 -222.37228394 253.88504028 C-228.79222493 248.21948244 -234.80391194 242.08475768 -240.8918457 236.06811523 C-242.62527393 234.36129771 -244.36582067 232.66167854 -246.11352539 230.96948242 C-268.49415132 209.28884404 -268.49415132 209.28884404 -270.296875 195.546875 C-269.99800994 185.34276786 -268.23019352 177.9910677 -261.25 170.25 C-247.29893637 157.55363588 -223.96301556 157.71266757 -206.24397039 155.15652609 C-202.85199161 154.66624797 -199.46071584 154.17115382 -196.06936646 153.67654419 C-189.66597648 152.7433223 -183.26204164 151.81390113 -176.8578645 150.88609803 C-165.36751835 149.22130782 -153.87812976 147.54992704 -142.38894093 145.87717068 C-139.02170677 145.38705121 -135.65436187 144.89771604 -132.28676987 144.41006088 C-128.54372681 143.86802285 -124.80090198 143.32449908 -121.05810547 142.78076172 C-119.94950668 142.62075684 -118.8409079 142.46075195 -117.69871521 142.29589844 C-116.67857834 142.14740448 -115.65844147 141.99891052 -114.60739136 141.84591675 C-113.7244383 141.71799681 -112.84148525 141.59007687 -111.93177605 141.45828056 C-111.10866495 141.32767298 -110.28555386 141.19706539 -109.4375 141.0625 C-108.54805758 140.94431475 -107.65861515 140.82612949 -106.74221992 140.70436287 C-104.06937527 140.22944379 -104.06937527 140.22944379 -102.39208984 137.00927734 C-101.7088729 135.6482081 -101.04566853 134.2769827 -100.3984375 132.8984375 C-100.03207184 132.15534332 -99.66570618 131.41224915 -99.28823853 130.64663696 C-98.11253759 128.25151982 -96.96240198 125.84509217 -95.8125 123.4375 C-95.06283421 121.90154403 -94.31154558 120.36637902 -93.55859375 118.83203125 C-90.28696662 112.1415641 -87.08117286 105.41989282 -83.88500977 98.69311523 C-76.65510185 83.49029402 -69.17543771 68.42088391 -61.625 53.375 C-60.4247079 50.98002919 -59.22503565 48.5847481 -58.02539062 46.18945312 C-55.33181248 40.81215917 -52.63758706 35.43519439 -49.93763733 30.06109619 C-48.88640413 27.959806 -47.84191557 25.85513437 -46.80247498 23.74798584 C-46.27227249 22.67558655 -45.74207001 21.60318726 -45.19580078 20.49829102 C-44.48207809 19.04725731 -44.48207809 19.04725731 -43.75393677 17.56690979 C-35.54580489 1.95163198 -16.89776481 -7.75591413 0 0 Z M-14.4375 30.0625 C-19.40725279 36.70541884 -22.75421028 44.5977969 -26.29922485 52.06231689 C-34.73771321 69.81469706 -43.55935143 87.37493525 -52.3918457 104.93359375 C-57.93400072 115.96549504 -63.38967138 127.03051035 -68.67976379 138.18582153 C-81.80979667 165.86547051 -81.80979667 165.86547051 -88.4375 169.0625 C-92.10880917 170.03619547 -95.8180749 170.54549888 -99.57788086 171.06005859 C-100.67657722 171.22280462 -101.77527357 171.38555065 -102.90726376 171.55322838 C-106.41551512 172.06989185 -109.92632798 172.56612202 -113.4375 173.0625 C-115.67042578 173.39016969 -117.90310623 173.71951588 -120.13552856 174.05059814 C-125.92303653 174.90569428 -131.71304665 175.74227099 -137.5041523 176.57262039 C-141.30182532 177.11740228 -145.09907291 177.66506985 -148.89622498 178.21347046 C-159.67006035 179.76909802 -170.44447224 181.32069484 -181.21948242 182.86816406 C-187.86240589 183.82223216 -194.50468869 184.78066083 -201.14665031 185.74140549 C-203.66016483 186.10415447 -206.17390215 186.46536327 -208.68786812 186.82497025 C-212.18772973 187.32567943 -215.6868231 187.83146768 -219.18579102 188.33837891 C-220.21178909 188.48386673 -221.23778717 188.62935455 -222.2948761 188.7792511 C-227.78427862 189.58040605 -233.08154448 190.61295593 -238.4375 192.0625 C-236.02708442 196.60080706 -232.91703432 199.85887122 -229.30078125 203.4296875 C-228.70251022 204.02750031 -228.1042392 204.62531311 -227.48783875 205.24124146 C-226.22350761 206.50256029 -224.9567557 207.76145666 -223.68774414 209.01806641 C-221.76852642 210.91914865 -219.85731155 212.82798883 -217.94726562 214.73828125 C-216.71140565 215.9692202 -215.47509157 217.19970343 -214.23828125 218.4296875 C-213.67651688 218.99033905 -213.1147525 219.5509906 -212.53596497 220.12863159 C-209.59607938 223.0344335 -206.59573901 225.82311251 -203.4675293 228.52587891 C-199.51939492 231.94616948 -195.82363179 235.56411644 -192.15625 239.28125 C-191.49846558 239.94282104 -190.84068115 240.60439209 -190.16296387 241.28601074 C-187.38683442 244.07828144 -184.61678463 246.87655416 -181.84619141 249.67431641 C-179.8058292 251.73290898 -177.76235669 253.78837903 -175.71875 255.84375 C-174.80119934 256.77374817 -174.80119934 256.77374817 -173.8651123 257.72253418 C-170.17706184 261.43108632 -166.35767721 264.91196089 -162.4006958 268.33084106 C-159.27722342 271.085935 -156.32983361 274.00778669 -153.3828125 276.94921875 C-152.44137894 277.88565971 -152.44137894 277.88565971 -151.48092651 278.84101868 C-150.17055684 280.14637306 -148.86149432 281.45304085 -147.55371094 282.76098633 C-145.55161809 284.7608699 -143.54162576 286.75258769 -141.53125 288.74414062 C-140.25211593 290.02034416 -138.97345294 291.29702008 -137.6953125 292.57421875 C-137.09639191 293.16595383 -136.49747131 293.7576889 -135.88040161 294.36735535 C-135.3257724 294.92506119 -134.77114319 295.48276703 -134.19970703 296.05737305 C-133.71309601 296.54255905 -133.22648499 297.02774506 -132.72512817 297.52763367 C-128.49757449 302.56692214 -129.03946428 307.79787566 -129.4375 314.0625 C-129.97975286 318.5624127 -130.74893771 323.00868482 -131.54882812 327.46923828 C-131.77316025 328.76336639 -131.99749237 330.05749451 -132.22862244 331.39083862 C-132.71277145 334.18375087 -133.20260156 336.9755821 -133.69700623 339.76669693 C-134.47986998 344.1873859 -135.24874986 348.61043968 -136.01574707 353.03390503 C-137.50701878 361.62355623 -139.01165892 370.21083701 -140.51828766 378.79780579 C-142.43689013 389.73468137 -144.35115372 400.6722917 -146.24974203 411.61266124 C-147.01209831 416.00278058 -147.78198438 420.39148995 -148.55789948 424.77923226 C-148.92355299 426.85352926 -149.28572143 428.92839929 -149.64637756 431.00357056 C-150.0844287 433.52375838 -150.52785438 436.04302086 -150.97789001 438.56109619 C-152.05765841 444.8322544 -152.66579224 450.69898589 -152.4375 457.0625 C-145.34175796 454.92216881 -139.08414377 451.99818911 -132.5625 448.5 C-131.04595825 447.69719604 -131.04595825 447.69719604 -129.4987793 446.87817383 C-127.43999433 445.78798121 -125.38260301 444.69515238 -123.32666016 443.59960938 C-120.78903516 442.24952597 -118.24644909 440.90996726 -115.69921875 439.578125 C-108.81901549 435.97984046 -101.95825453 432.34747439 -95.12109375 428.66796875 C-92.80997909 427.42432405 -90.49882333 426.18075675 -88.1875 424.9375 C-87.60132904 424.62214294 -87.01515808 424.30678589 -86.41122437 423.98187256 C-75.55156024 418.14493491 -64.61017032 412.47515693 -53.63110352 406.86645508 C-47.67470806 403.81639383 -41.76449534 400.72255737 -35.94140625 397.421875 C-34.95060059 396.86266357 -33.95979492 396.30345215 -32.93896484 395.72729492 C-31.13732762 394.70142775 -29.34375735 393.66117902 -27.56103516 392.6027832 C-22.13133696 389.51173749 -16.78695121 387.24756372 -10.4375 388.0625 C-7.34693416 389.21346035 -4.39848244 390.6141297 -1.4375 392.0625 C-0.75429184 392.39660385 -0.07108368 392.7307077 0.63282776 393.07493591 C2.68429647 394.09655922 4.72420339 395.13834015 6.76171875 396.1875 C7.51017563 396.57079971 8.25863251 396.95409943 9.0297699 397.34901428 C11.43803753 398.58390072 13.84416439 399.8228829 16.25 401.0625 C17.07973328 401.48900848 17.90946655 401.91551697 18.76434326 402.35494995 C28.97041209 407.60302328 39.11943554 412.9290825 49.15698242 418.49414062 C58.44981533 423.61513168 67.91013449 428.40804902 77.35766602 433.23519897 C87.57045638 438.45560797 97.71780845 443.75768797 107.72851562 449.359375 C116.2066198 454.64511304 116.2066198 454.64511304 125.5625 457.0625 C125.83565075 449.44858084 124.78895772 442.39983706 123.45117188 434.91455078 C123.1068155 432.93340597 122.76246017 430.95226099 122.41814423 428.97110915 C122.04926553 426.85719446 121.67666319 424.74396652 121.30299377 422.63089371 C120.52143849 418.20959306 119.75194493 413.78624413 118.98425293 409.36251831 C117.0758269 398.37650298 115.1514115 387.39329583 113.22442627 376.41052246 C111.72595143 367.8688557 110.23183325 359.32647277 108.75025797 350.78185642 C107.98890007 346.39378116 107.21890321 342.00734135 106.44210052 337.62197518 C105.8452814 334.23900862 105.26055812 330.85396877 104.67382812 327.46923828 C104.45876114 326.26992676 104.24369415 325.07061523 104.02210999 323.83496094 C101.01397639 306.27643985 101.01397639 306.27643985 104.11816406 299.83374023 C107.19688476 296.34327294 110.36293017 292.9952578 113.671875 289.72265625 C114.35751526 289.03747421 115.04315552 288.35229218 115.74957275 287.64634705 C117.19623948 286.20269019 118.64532462 284.7614532 120.09667969 283.32250977 C122.29675846 281.14061146 124.4888052 278.95089409 126.6796875 276.75976562 C128.09328086 275.35109157 129.50732892 273.94287362 130.921875 272.53515625 C131.56799744 271.89014664 132.21411987 271.24513702 132.87982178 270.58058167 C136.02672718 267.46568905 139.21982356 264.45483778 142.57128906 261.56030273 C146.58642247 258.0880271 150.33481884 254.40150506 154.0625 250.625 C155.0824707 249.59934937 155.0824707 249.59934937 156.12304688 248.55297852 C158.27200926 246.39192945 160.41767279 244.22765274 162.5625 242.0625 C165.39283837 239.20533983 168.22662673 236.35166546 171.0625 233.5 C171.69607422 232.85812744 172.32964844 232.21625488 172.98242188 231.55493164 C176.74537463 227.77174265 180.6337602 224.20859372 184.67190552 220.72155762 C187.40247186 218.32539761 189.98754654 215.79946828 192.55859375 213.234375 C193.07760757 212.71868958 193.5966214 212.20300415 194.13136292 211.67169189 C195.21052902 210.59752688 196.28840305 209.52206224 197.36499023 208.4453125 C199.01594249 206.79657893 200.67478308 205.15605209 202.33398438 203.515625 C203.3885082 202.46403016 204.44256236 201.4119641 205.49609375 200.359375 C205.99080673 199.87184753 206.48551971 199.38432007 206.995224 198.88201904 C209.25915695 196.60276434 210.5299174 195.16024781 211.5625 192.0625 C198.22403467 189.06558185 184.70076507 187.2461991 171.17616653 185.31828308 C166.90390191 184.70919041 162.63270965 184.09279298 158.36166382 183.47521973 C146.22885494 181.72195868 134.09470678 179.97809197 121.95947266 178.24169922 C115.22993168 177.27872515 108.501283 176.30973928 101.7735256 175.33438063 C97.53614281 174.72042761 93.29779237 174.11385692 89.05854344 173.51293182 C85.79798106 173.04852417 82.5390249 172.57320781 79.27978516 172.09960938 C77.54027588 171.85636177 77.54027588 171.85636177 75.765625 171.60820007 C59.81768448 169.26045815 59.81768448 169.26045815 55.20532227 164.76513672 C53.42308126 161.8331397 51.80164643 158.89542349 50.27734375 155.8203125 C49.82555504 154.91392532 49.82555504 154.91392532 49.36463928 153.98922729 C48.40409679 152.05806858 47.4521077 150.12282845 46.5 148.1875 C45.88918617 146.9593795 45.27786073 145.73151331 44.66601562 144.50390625 C41.31375755 137.75595399 38.03807295 130.97374454 34.80357361 124.16860962 C27.88335544 109.61493681 20.67691042 95.20918658 13.4375 80.8125 C11.0156186 75.99609764 8.59606316 71.17854234 6.1796875 66.359375 C5.31594513 64.63781189 5.31594513 64.63781189 4.43475342 62.88146973 C0.60865645 55.22872422 -3.11768685 47.53568973 -6.68045044 39.75653076 C-9.05171444 34.5861723 -9.05171444 34.5861723 -12.4375 30.0625 C-13.0975 30.0625 -13.7575 30.0625 -14.4375 30.0625 Z " fill="#000000" transform="translate(269.4375,13.9375)"/>
</svg>
